#!OML:ASF E:\VariousWalksJay\Project 1\Capture day 1\Session 1\Actor2.ASF
:FULLY-SPECIFIED
:DEGREES
714
root 5.27507 15.9126 12.1534 15.4222 -29.9722 -8.30078
lowerback 13.2742 -1.74999 8.36745
upperback 12.8755 -1.92459 -0.461918
thorax 6.1488 -0.417065 -5.03813
lowerneck 7.80761 -0.715916 -0.862082
upperneck -16.1123 0.227223 8.61767
head -6.17314 -0.554874 2.87429
rclavicle -3.65764e-014 -2.66371e-014
rhumerus -42.1057 25.31 -87.6433
rradius 62.7989
rwrist 4.22769
rhand -12.9875 -10.6498
rfingers 7.12502
rthumb 13.1052 -40.218
lclavicle -3.65764e-014 -2.66371e-014
lhumerus 20.6298 -22.8605 61.3032
lradius 72.4764
lwrist 82.717
lhand -36.7764 7.22182
lfingers 7.12502
lthumb -9.85896 36.971
rfemur -11.7301 0.768211 29.145
rtibia 53.6221
rfoot -31.004 -3.93051
rtoes -30.5306
lfemur -54.825 2.64756 -15.4441
ltibia 46.745
lfoot -15.0158 1.76015
ltoes -9.67606
715
root 5.24434 15.9147 12.2643 15.5124 -29.9708 -8.3287
lowerback 13.2198 -1.75762 8.4025
upperback 12.862 -1.93636 -0.444507
thorax 6.16172 -0.420684 -5.03913
lowerneck 7.79763 -0.70781 -0.832069
upperneck -16.111 0.234678 8.56979
head -6.1715 -0.549041 2.8532
rclavicle 1.19271e-015 0
rhumerus -42.1466 25.2722 -87.6475
rradius 62.6451
rwrist 4.2746
rhand -12.9628 -10.6448
rfingers 7.12502
rthumb 13.1291 -40.2115
lclavicle 1.19271e-015 0
lhumerus 20.5279 -22.8675 61.4586
lradius 72.4825
lwrist 82.6786
lhand -36.7754 7.19582
lfingers 7.12502
lthumb -9.85798 36.945
rfemur -11.5228 0.811162 28.967
rtibia 53.7219
rfoot -30.2652 -3.41236
rtoes -30.9351
lfemur -54.8185 2.56482 -15.5005
ltibia 47.3553
lfoot -15.1351 1.78413
ltoes -9.18661
716
root 5.2138 15.9182 12.3768 15.6074 -29.9657 -8.35387
lowerback 13.1685 -1.76577 8.43558
upperback 12.849 -1.94872 -0.427611
thorax 6.17353 -0.424755 -5.03947
lowerneck 7.77565 -0.704247 -0.790635
upperneck -16.1024 0.236952 8.52352
head -6.16523 -0.546148 2.83086
rclavicle 3.1408e-014 -5.12864e-014
rhumerus -42.1739 25.2308 -87.6457
rradius 62.4949
rwrist 4.29759
rhand -12.9377 -10.6402
rfingers 7.12502
rthumb 13.1532 -40.2054
lclavicle 3.1408e-014 -5.12864e-014
lhumerus 20.433 -22.8873 61.6139
lradius 72.4843
lwrist 82.6395
lhand -36.7749 7.1654
lfingers 7.12502
lthumb -9.85744 36.9146
rfemur -11.4172 0.866877 28.7663
rtibia 53.9737
rfoot -29.3578 -2.75437
rtoes -31.2326
lfemur -54.7855 2.45496 -15.5506
ltibia 47.9152
lfoot -15.2145 1.78199
ltoes -8.62643
717
root 5.18383 15.9228 12.4904 15.7034 -29.9568 -8.37623
lowerback 13.1283 -1.77905 8.46328
upperback 12.8371 -1.96733 -0.410176
thorax 6.17956 -0.432661 -5.03542
lowerneck 7.73914 -0.699976 -0.745305
upperneck -16.0839 0.240343 8.48097
head -6.15336 -0.542708 2.80867
rclavicle 3.18055e-014 -2.78299e-014
rhumerus -42.1843 25.1998 -87.6374
rradius 62.3465
rwrist 4.30603
rhand -12.9104 -10.6387
rfingers 7.12502
rthumb 13.1795 -40.2021
lclavicle 3.18055e-014 -2.78299e-014
lhumerus 20.3419 -22.9155 61.7634
lradius 72.484
lwrist 82.5949
lhand -36.7747 7.15102
lfingers 7.12502
lthumb -9.85732 36.9003
rfemur -11.4361 0.925825 28.5401
rtibia 54.412
rfoot -28.2433 -1.96357
rtoes -31.4312
lfemur -54.7252 2.31608 -15.5941
ltibia 48.4259
lfoot -15.2491 1.7584
ltoes -7.99863
718
root 5.15491 15.928 12.6048 15.7988 -29.9453 -8.39867
lowerback 13.1103 -1.79642 8.49475
upperback 12.8248 -1.98882 -0.39539
thorax 6.17263 -0.442222 -5.03554
lowerneck 7.69098 -0.694228 -0.69208
upperneck -16.0598 0.247172 8.44443
head -6.13791 -0.538203 2.78665
rclavicle -2.94201e-014 2.94201e-014
rhumerus -42.183 25.1739 -87.625
rradius 62.2047
rwrist 4.30217
rhand -12.8886 -10.6384
rfingers 7.12502
rthumb 13.2006 -40.2005
lclavicle -2.94201e-014 2.94201e-014
lhumerus 20.268 -22.9611 61.887
lradius 72.4822
lwrist 82.5677
lhand -36.7752 7.12643
lfingers 7.12502
lthumb -9.85772 36.8757
rfemur -11.6071 0.984346 28.2871
rtibia 55.0777
rfoot -26.8801 -1.04091
rtoes -31.4823
lfemur -54.6395 2.14297 -15.6259
ltibia 48.8935
lfoot -15.241 1.73414
ltoes -7.30055
